<?xml version="1.0" encoding="utf-8"?>
<!-- Generator: Adobe Illustrator 29.9.0, SVG Export Plug-In . SVG Version: 9.03 Build 0)  -->
<svg version="1.0" id="Warstwa_1" xmlns="http://www.w3.org/2000/svg" xmlns:xlink="http://www.w3.org/1999/xlink" x="0px" y="0px"
	 viewBox="0 0 100 100" style="enable-background:new 0 0 100 100;" xml:space="preserve">
<style type="text/css">
	.st0{fill:#D2A953;}
	.st1{fill:#F8F5ED;}
	.st2{fill:#29201A;}
	.st3{fill:none;}
</style>
<g>
	<g>
		<g>
			<rect x="7.9" y="12.4" class="st0" width="28.6" height="75.1"/>
			<path class="st0" d="M38.1,89.2H6.3V10.8h31.8V89.2z M9.6,85.9H35V14.1H9.6V85.9z"/>
		</g>
		<g>
			<rect x="18.6" y="12.4" class="st1" width="73.4" height="75.1"/>
			<path d="M93.7,89.2H17.1V10.8h76.6V89.2z M20.3,85.9h70.1V14.1H20.3V85.9z"/>
		</g>
		<g>
			<g>
				<path class="st2" d="M36.2,63.3h-7.6l8.6-26.6h9.6l8.6,26.6h-7.6L42.1,44h-0.2L36.2,63.3z M34.7,52.8H49v5.4H34.7V52.8z"/>
				<path class="st2" d="M74.7,45.5c-0.1-0.5-0.3-0.9-0.5-1.2c-0.3-0.4-0.5-0.7-0.9-0.9c-0.3-0.3-0.8-0.5-1.2-0.6
					c-0.4-0.1-1-0.2-1.5-0.2c-1.2,0-2.2,0.3-3.1,0.9c-0.9,0.6-1.5,1.4-1.9,2.6c-0.4,1.1-0.6,2.4-0.6,4s0.2,2.9,0.6,4
					c0.4,1.1,1,2,1.8,2.6c0.8,0.6,1.8,0.9,3.1,0.9c1,0,2-0.2,2.7-0.5c0.7-0.3,1.2-0.8,1.6-1.3c0.3-0.6,0.5-1.3,0.5-2.1l1.2,0.1h-5.9
					v-5.1h11.5v3.7c0,2.5-0.5,4.5-1.5,6.2s-2.4,3-4.1,4c-1.7,0.9-3.8,1.4-6,1.4c-2.5,0-4.7-0.6-6.6-1.6c-1.9-1.1-3.4-2.6-4.5-4.7
					c-1-2.1-1.6-4.4-1.6-7.3c0-2.2,0.3-4.2,1-5.9c0.7-1.7,1.6-3.1,2.7-4.3c1.1-1.2,2.5-2.1,4-2.6c1.6-0.6,3.1-0.9,4.9-0.9
					c1.6,0,3,0.2,4.3,0.7s2.5,1,3.5,1.9c1,0.9,1.8,1.8,2.4,2.9c0.6,1.1,1,2.4,1.1,3.7L74.7,45.5L74.7,45.5z"/>
			</g>
		</g>
	</g>
	<rect class="st3" width="100" height="100"/>
</g>
</svg>
