<?xml version="1.0" encoding="utf-8"?>
<!-- Generator: Adobe Illustrator 29.9.0, SVG Export Plug-In . SVG Version: 9.03 Build 0)  -->
<svg version="1.0" id="Warstwa_1" xmlns="http://www.w3.org/2000/svg" xmlns:xlink="http://www.w3.org/1999/xlink" x="0px" y="0px"
	 viewBox="0 0 100 100" style="enable-background:new 0 0 100 100;" xml:space="preserve">
<style type="text/css">
	.st0{fill:#D2A953;}
	.st1{fill:#F8F5ED;}
	.st2{fill:#29201A;}
</style>
<g>
	<g>
		<g>
			<rect x="1.8" y="1.7" class="st0" width="32.7" height="79.5"/>
			<path class="st0" d="M36.4,83H0V0h36.4V83z M3.7,79.5h29.1v-76H3.7V79.5z"/>
		</g>
		<g>
			<rect x="14.1" y="1.7" class="st1" width="84" height="79.5"/>
			<path d="M100,83H12.3V0H100V83z M16,79.5h80.3v-76H16V79.5z"/>
		</g>
		<g>
			<g>
				<path class="st2" d="M34.2,55.6h-8.7l9.8-28.2h11l9.8,28.2h-8.7l-6.5-20.4h-0.2L34.2,55.6z M32.5,44.5h16.4v5.7H32.5V44.5z"/>
				<path class="st2" d="M78.3,36.7c-0.1-0.5-0.3-0.9-0.6-1.3c-0.3-0.4-0.6-0.7-1-0.9c-0.4-0.3-0.9-0.5-1.4-0.6
					c-0.5-0.1-1.1-0.2-1.7-0.2c-1.4,0-2.5,0.3-3.5,0.9c-1,0.6-1.7,1.5-2.2,2.7c-0.5,1.2-0.7,2.5-0.7,4.2c0,1.7,0.2,3.1,0.7,4.2
					c0.5,1.2,1.2,2.1,2.1,2.7c0.9,0.6,2.1,0.9,3.5,0.9c1.2,0,2.3-0.2,3.1-0.5c0.8-0.3,1.4-0.8,1.8-1.4c0.4-0.6,0.6-1.4,0.6-2.2
					l1.4,0.1h-6.8v-5.4h13.2v3.9c0,2.6-0.6,4.8-1.7,6.6c-1.1,1.8-2.7,3.2-4.7,4.2c-2,1-4.3,1.5-6.9,1.5c-2.9,0-5.4-0.6-7.6-1.7
					c-2.2-1.2-3.9-2.8-5.1-5c-1.2-2.2-1.8-4.7-1.8-7.7c0-2.3,0.4-4.4,1.1-6.2c0.8-1.8,1.8-3.3,3.1-4.6s2.9-2.2,4.6-2.8
					c1.8-0.6,3.6-1,5.6-1c1.8,0,3.4,0.2,4.9,0.7c1.5,0.5,2.9,1.1,4,2c1.2,0.9,2.1,1.9,2.8,3.1c0.7,1.2,1.2,2.5,1.3,3.9H78.3z"/>
			</g>
		</g>
	</g>
	<g>
		<path d="M28.4,99.9v-8.3h2.9c0.6,0,1.1,0.1,1.6,0.4s0.7,0.6,0.9,1s0.3,0.9,0.3,1.4c0,0.5-0.1,1-0.3,1.4c-0.2,0.4-0.5,0.7-0.9,1
			c-0.4,0.2-0.9,0.4-1.6,0.4h-2v-1.1h1.9c0.4,0,0.7-0.1,1-0.2c0.2-0.1,0.4-0.3,0.5-0.6c0.1-0.2,0.2-0.5,0.2-0.8
			c0-0.3-0.1-0.6-0.2-0.8c-0.1-0.2-0.3-0.4-0.5-0.6c-0.2-0.1-0.6-0.2-1-0.2h-1.5v7.2H28.4z"/>
		<path d="M37.9,100c-0.6,0-1.1-0.1-1.5-0.4c-0.4-0.3-0.7-0.6-1-1.1c-0.2-0.5-0.3-1-0.3-1.7c0-0.6,0.1-1.2,0.3-1.7
			c0.2-0.5,0.6-0.9,1-1.1c0.4-0.3,0.9-0.4,1.5-0.4c0.6,0,1.1,0.1,1.5,0.4c0.4,0.3,0.7,0.6,1,1.1c0.2,0.5,0.3,1,0.3,1.7
			c0,0.6-0.1,1.2-0.3,1.7c-0.2,0.5-0.6,0.9-1,1.1C39,99.9,38.5,100,37.9,100z M37.9,99c0.4,0,0.7-0.1,0.9-0.3
			c0.2-0.2,0.4-0.5,0.5-0.8c0.1-0.3,0.2-0.7,0.2-1.1c0-0.4-0.1-0.8-0.2-1.1c-0.1-0.3-0.3-0.6-0.5-0.8c-0.2-0.2-0.5-0.3-0.9-0.3
			c-0.4,0-0.7,0.1-0.9,0.3c-0.2,0.2-0.4,0.5-0.5,0.8c-0.1,0.3-0.2,0.7-0.2,1.1c0,0.4,0.1,0.8,0.2,1.1c0.1,0.3,0.3,0.6,0.5,0.8
			C37.2,98.9,37.5,99,37.9,99z"/>
		<path d="M42,99.9v-6.2h1.1v1h0.1c0.1-0.3,0.3-0.6,0.6-0.8c0.3-0.2,0.6-0.3,0.9-0.3c0.1,0,0.2,0,0.3,0c0.1,0,0.2,0,0.2,0v1.2
			c0,0-0.1,0-0.3,0c-0.1,0-0.2,0-0.4,0c-0.3,0-0.5,0.1-0.7,0.2c-0.2,0.1-0.4,0.3-0.5,0.5c-0.1,0.2-0.2,0.5-0.2,0.7v3.8H42z"/>
		<path d="M49.1,93.7v1h-3.3v-1H49.1z M46.7,92.2h1.2v5.9c0,0.2,0,0.4,0.1,0.5c0.1,0.1,0.2,0.2,0.3,0.2c0.1,0,0.2,0.1,0.4,0.1
			c0.1,0,0.2,0,0.2,0c0.1,0,0.1,0,0.2,0l0.2,1c-0.1,0-0.2,0.1-0.3,0.1c-0.1,0-0.3,0-0.5,0c-0.3,0-0.6-0.1-0.9-0.2
			c-0.3-0.1-0.5-0.3-0.6-0.5c-0.2-0.2-0.2-0.6-0.2-0.9V92.2z"/>
		<path d="M53.3,93.7v1h-3.4v-1H53.3z M50.8,99.9V93c0-0.4,0.1-0.7,0.2-1c0.2-0.3,0.4-0.4,0.7-0.6c0.3-0.1,0.6-0.2,0.9-0.2
			c0.2,0,0.4,0,0.6,0.1c0.2,0,0.3,0.1,0.4,0.1l-0.3,1c-0.1,0-0.1,0-0.2-0.1c-0.1,0-0.2,0-0.3,0c-0.3,0-0.5,0.1-0.6,0.2
			C52,92.6,52,92.9,52,93.1v6.7H50.8z"/>
		<path d="M57,100c-0.6,0-1.1-0.1-1.5-0.4s-0.7-0.6-1-1.1c-0.2-0.5-0.3-1-0.3-1.7c0-0.6,0.1-1.2,0.3-1.7c0.2-0.5,0.6-0.9,1-1.1
			s0.9-0.4,1.5-0.4s1.1,0.1,1.5,0.4c0.4,0.3,0.7,0.6,1,1.1c0.2,0.5,0.3,1,0.3,1.7c0,0.6-0.1,1.2-0.3,1.7c-0.2,0.5-0.6,0.9-1,1.1
			C58.1,99.9,57.6,100,57,100z M57,99c0.4,0,0.7-0.1,0.9-0.3c0.2-0.2,0.4-0.5,0.5-0.8c0.1-0.3,0.2-0.7,0.2-1.1
			c0-0.4-0.1-0.8-0.2-1.1c-0.1-0.3-0.3-0.6-0.5-0.8c-0.2-0.2-0.5-0.3-0.9-0.3c-0.4,0-0.7,0.1-0.9,0.3c-0.2,0.2-0.4,0.5-0.5,0.8
			c-0.1,0.3-0.2,0.7-0.2,1.1c0,0.4,0.1,0.8,0.2,1.1c0.1,0.3,0.3,0.6,0.5,0.8C56.3,98.9,56.6,99,57,99z"/>
		<path d="M62.3,91.6v8.3h-1.2v-8.3H62.3z"/>
		<path d="M64.5,92.7c-0.2,0-0.4-0.1-0.5-0.2c-0.1-0.1-0.2-0.3-0.2-0.5c0-0.2,0.1-0.4,0.2-0.5c0.1-0.1,0.3-0.2,0.5-0.2
			s0.4,0.1,0.5,0.2c0.1,0.1,0.2,0.3,0.2,0.5c0,0.2-0.1,0.4-0.2,0.5C64.8,92.7,64.7,92.7,64.5,92.7z M63.9,99.9v-6.2H65v6.2H63.9z"/>
		<path d="M69.2,100c-0.6,0-1.1-0.1-1.5-0.4c-0.4-0.3-0.7-0.6-1-1.1c-0.2-0.5-0.3-1-0.3-1.7c0-0.6,0.1-1.2,0.3-1.7
			c0.2-0.5,0.6-0.9,1-1.1c0.4-0.3,0.9-0.4,1.5-0.4c0.6,0,1.1,0.1,1.5,0.4c0.4,0.3,0.7,0.6,1,1.1c0.2,0.5,0.3,1,0.3,1.7
			c0,0.6-0.1,1.2-0.3,1.7c-0.2,0.5-0.6,0.9-1,1.1C70.2,99.9,69.7,100,69.2,100z M69.2,99c0.4,0,0.7-0.1,0.9-0.3
			c0.2-0.2,0.4-0.5,0.5-0.8c0.1-0.3,0.2-0.7,0.2-1.1c0-0.4-0.1-0.8-0.2-1.1c-0.1-0.3-0.3-0.6-0.5-0.8c-0.2-0.2-0.5-0.3-0.9-0.3
			c-0.4,0-0.7,0.1-0.9,0.3c-0.2,0.2-0.4,0.5-0.5,0.8c-0.1,0.3-0.2,0.7-0.2,1.1c0,0.4,0.1,0.8,0.2,1.1c0.1,0.3,0.3,0.6,0.5,0.8
			C68.5,98.9,68.8,99,69.2,99z"/>
	</g>
</g>
</svg>
